<?xml version="1.0" encoding="UTF-8"?>
<!DOCTYPE svg PUBLIC "-//W3C//DTD SVG 1.1//EN" "http://www.w3.org/Graphics/SVG/1.1/DTD/svg11.dtd">
<svg xmlns="http://www.w3.org/2000/svg" version="1.1" width="256px" height="256px" style="shape-rendering:geometricPrecision; text-rendering:geometricPrecision; image-rendering:optimizeQuality; fill-rule:evenodd; clip-rule:evenodd" xmlns:xlink="http://www.w3.org/1999/xlink">
<g><path style="opacity:0.948" fill="#fe5c56" d="M 100.5,14.5 C 119.882,15.1716 139.215,16.5049 158.5,18.5C 171.191,87.2864 184.524,155.953 198.5,224.5C 197.167,224.833 195.833,225.167 194.5,225.5C 180.533,223.942 166.533,222.776 152.5,222C 149.696,208.277 147.362,194.444 145.5,180.5C 130.839,181.038 116.172,181.372 101.5,181.5C 97.9935,200.527 94.3269,219.527 90.5,238.5C 75.7927,237.563 61.126,236.229 46.5,234.5C 64.286,161.119 82.286,87.786 100.5,14.5 Z M 125.5,61.5 C 130.543,89.5598 135.543,117.726 140.5,146C 129.831,146.734 119.164,147.067 108.5,147C 114.767,118.638 120.434,90.138 125.5,61.5 Z"/></g>
</svg>
